<svg xmlns="http://www.w3.org/2000/svg" xmlns:xlink="http://www.w3.org/1999/xlink" viewBox="0 0 439 583.19"><defs><style>.a{fill:none;}.b{clip-path:url(#a);}.c{fill:#8e9090;}.d{fill:#fff;}</style><clipPath id="a"><rect class="a" width="439" height="583.19"/></clipPath></defs><title>Zeichenfläche 1</title><g class="b"><path class="c" d="M438,241.11c-7.16-81.82-27.88-143.44-55.43-164.86-9.48-7.37-19.74-10.24-30.42-8.47-26.43,4.33-31.59,21.66-35.36,34.31-3.23,10.82-5.31,16.53-13.89,17.88-9.63,1.56-15.25-10.49-24.22-31.89C264.23,53.63,242.39,1.56,170.4,0,43.47-2.72,13.57,133.67,2.06,236.41c-9.74,87,14.69,213.19,80.24,286.14C118.47,562.8,163.1,583.19,215,583.19h.95c53.45-.25,99.31-20.94,136.3-61.5,73.33-80.39,91.54-214.76,85.79-280.57"/><path class="d" d="M340.44,152.39c-.41,0-.83,0-1.24,0a23.1,23.1,0,0,0-23,21.9,23.1,23.1,0,1,0,46.14,2.42h0a23.09,23.09,0,0,0-21.86-24.29"/><path class="d" d="M87.5,416.41c0-12.2-9.82-15.17-17.2-17.71-5.34-1.86-11.44-4.15-11.44-10.77,0-4.83,3.81-9.32,10.59-9.32,3.48,0,10.69.85,13.56,12.54h2.12l-1.35-13.72H82l-.42,1.95a25.85,25.85,0,0,0-12-2.88c-8.4,0-17.28,4.31-17.28,14.4s7.1,13.82,15.08,16.53c5.77,1.95,13.06,4.4,13.06,11.61,0,4.49-2.71,10.76-11.28,10.76-10.85,0-14.74-9.32-16.52-14.41l-2.2.42,1.52,15H54l1.18-2.45a30.18,30.18,0,0,0,14,3.72c8,0,18.38-3.63,18.38-15.67m37.6-9.67c0-6.26-4.32-12.27-13.64-12.27a16.89,16.89,0,0,0-13,5.75,20.13,20.13,0,0,0-4.82,13.64c0,11.62,7.79,18.21,16.51,18.21,9.16,0,13.23-6.77,14.67-10.58l-1.61-.77c-1.1,2-3.47,6.36-10,6.36-7.37,0-12.12-6.28-12.12-15.85a26.27,26.27,0,0,1,.42-4.83l23.13.76ZM118,403c0,1.44-.51,1.78-1.95,1.78H101.88c1-4,3.73-8.57,9.41-8.57a6.45,6.45,0,0,1,4.58,1.61A7.46,7.46,0,0,1,118,403m37.89-4.25a4.32,4.32,0,0,0-4.57-4.31c-3.82,0-7.12,3.29-9.92,8.45h-.08l.08-8.45h-1.61L129.36,398v1.18l5.09,3.13V428l-5.09.76v2.28c2.8-.17,6-.25,8.89-.25,2.62,0,7,.08,9.66.25v-2.28l-6.53-.76V405.54c1-2.12,3.48-5.75,5.51-5.75l3.9,3.63a1.86,1.86,0,0,0,.85.17,4.56,4.56,0,0,0,4.24-4.82m38.72-.75v-2.29a57.19,57.19,0,0,1-5.84.26c-2.71,0-3.64-.08-6.27-.26V398l5.25.76-6,17.53c-.6,1.78-2.12,6-2.12,6h-.08s-1.95-5.09-2.71-7l-6.69-16.52,4.58-.76v-2.29c-2.8.17-5.51.26-8.31.26s-5-.08-7.62-.26V398l4,.76,13.9,34h1.52l11.86-34Zm16.67-19.75a4.37,4.37,0,0,0-4.4-4.4,4.4,4.4,0,0,0,0,8.8,4.37,4.37,0,0,0,4.4-4.4m4.24,52.79v-2.28l-5.17-.76V394.27H209l-10.41,4.23v1.19l4.83,2.62V428l-5.17.76v2.28c2.8-.17,5.68-.25,8.55-.25,2.62,0,6.09.08,8.72.25m34.35-9.48-1.61-.85c-1.11,1.86-3.56,6.36-9.83,6.36-7.21,0-12.29-6-12.29-15.85,0-8.56,3.39-15.09,10.35-15.09a5.79,5.79,0,0,1,2.88.68l4.49,7.88a3.53,3.53,0,0,0,1.95.59,3.4,3.4,0,0,0,3.65-3.56c0-4.15-5.59-7.28-12.37-7.28a17.62,17.62,0,0,0-13.73,5.92,20.84,20.84,0,0,0-4.66,13.73c0,11.27,7.62,18,16.52,18,9.24,0,13.05-6.51,14.66-10.5M286,406.74c0-6.26-4.32-12.27-13.64-12.27a16.89,16.89,0,0,0-13,5.75,20.13,20.13,0,0,0-4.82,13.64c0,11.62,7.79,18.21,16.51,18.21,9.15,0,13.23-6.77,14.67-10.58l-1.61-.77c-1.1,2-3.47,6.36-10,6.36-7.37,0-12.12-6.28-12.12-15.85a26.16,26.16,0,0,1,.42-4.83l23.13.76ZM278.88,403c0,1.44-.51,1.78-1.95,1.78H262.79c1-4,3.73-8.57,9.4-8.57a6.42,6.42,0,0,1,4.57,1.61,7.43,7.43,0,0,1,2.12,5.18m37.35,18.64c0-5.84-3.56-8.56-9.4-11.19l-2.71-1.27c-4.83-2.2-7.12-3.64-7.12-7.29,0-3.22,2.37-5.59,6-5.59,5.43,0,8.06,5.25,9.07,9.07h1.86l-.42-9.24a31.73,31.73,0,0,0-9.41-1.68c-6.79,0-12.29,3.37-12.29,10.41,0,6.53,3.89,8.56,9.23,11.1l1.95.93c5.09,2.46,7,4.07,7,7.21,0,3.39-1.95,6.1-6.62,6.1-4.92,0-7.71-4.07-9.57-10.25h-1.95l.42,10.17A32.5,32.5,0,0,0,303,432.08c7,0,13.22-2.53,13.22-10.41"/><path class="d" d="M96.31,338.08H94.53c-2.54,8.14-7.62,12.63-15.93,12.63-8.13,0-18.73-6.1-18.73-25.68,0-22,12.71-25.51,18.81-25.51,6.44,0,12.88,3.64,15.6,12.45h1.77l-1.27-13.55H92.92l-.6,2.2a32,32,0,0,0-13.89-3.21c-13.9,0-28,8.89-28,28.64C50.4,343.68,63.6,353,77.33,353a32.56,32.56,0,0,0,15.25-3.64l.59,2.2H95Zm41.45-3.9c0-13.39-9.82-18.81-17.71-18.81-8.9,0-17.88,6.43-17.88,18.72,0,11.44,7.28,18.9,17.8,18.9,10.25,0,17.79-7.19,17.79-18.81m-8,2.12c0,5.85-1.69,14.83-9.16,14.83-8.9,0-10.51-12.12-10.51-18.82,0-6,1.18-15.09,9.07-15.09,9.16,0,10.6,12.21,10.6,19.08M158.16,352v-2.28l-5.08-.76V294.36h-1.36l-10.42,4.23v1.18l4.83,2.62v46.53l-5.08.76V352c2.8-.17,5.59-.25,8.47-.25,2.62,0,6,.08,8.63.25m21.38,0v-2.28l-5.09-.76V294.36H173.1l-10.41,4.23v1.18l4.83,2.62v46.53l-5.09.76V352c2.8-.17,5.59-.25,8.47-.25,2.62,0,6,.08,8.64.25m34.63-24.32c0-6.27-4.33-12.28-13.64-12.28a16.91,16.91,0,0,0-13,5.75,20.16,20.16,0,0,0-4.82,13.64c0,11.62,7.79,18.22,16.52,18.22,9.15,0,13.22-6.77,14.66-10.59l-1.61-.76c-1.11,2-3.48,6.36-10,6.36-7.37,0-12.12-6.28-12.12-15.86a26.37,26.37,0,0,1,.42-4.83l23.14.76ZM207,323.93c0,1.44-.51,1.78-1.95,1.78H191c1-4,3.73-8.57,9.41-8.57a6.46,6.46,0,0,1,4.58,1.61,7.46,7.46,0,0,1,2.12,5.18m43.24,18.56-1.61-.85c-1.11,1.87-3.56,6.36-9.83,6.36-7.21,0-12.29-6-12.29-15.85,0-8.56,3.39-15.09,10.34-15.09a5.87,5.87,0,0,1,2.88.68l4.49,7.89a3.58,3.58,0,0,0,1.95.59,3.4,3.4,0,0,0,3.65-3.56c0-4.15-5.59-7.28-12.37-7.28a17.61,17.61,0,0,0-13.73,5.93A20.83,20.83,0,0,0,219.11,335c0,11.28,7.62,18,16.52,18,9.24,0,13.05-6.52,14.66-10.51Zm29.84,4.58-1-.76c-1.18,1.27-3.14,1.7-5.51,1.7-2.54,0-4.15-.6-5.17-1.61-1.61-1.61-1.69-4.24-1.69-8.14V323H278.1v-5.59h-.17a3.62,3.62,0,0,1-2.55.68h-8.64v-6.95h-1.36a52.19,52.19,0,0,1-11,10.67V323h5.42v18.48c0,5,.76,7.46,2.54,9.32,1.44,1.43,3.56,2.2,6.6,2.2,6.78,0,10.34-4.15,11.19-5.92m16.55-47.89a4.37,4.37,0,0,0-4.4-4.4,4.4,4.4,0,1,0,0,8.8,4.37,4.37,0,0,0,4.4-4.4M300.92,352v-2.28l-5.17-.76V315.18H294.4L284,319.41v1.18l4.83,2.62v25.72l-5.17.76V352c2.8-.17,5.68-.25,8.56-.25,2.62,0,6.09.08,8.72.25m38.52-17.79c0-13.39-9.82-18.81-17.71-18.81-8.9,0-17.87,6.43-17.87,18.72,0,11.44,7.28,18.9,17.79,18.9,10.26,0,17.79-7.19,17.79-18.81m-8,2.12c0,5.85-1.7,14.83-9.16,14.83-8.9,0-10.51-12.12-10.51-18.82,0-6,1.19-15.09,9.07-15.09,9.15,0,10.6,12.21,10.6,19.08M383.21,352v-2.28l-5.17-.76V327.55c0-5.07-.76-7.61-2.79-9.63-1.61-1.61-4-2.54-7.37-2.54a17.12,17.12,0,0,0-12.64,5.75v-5.75h-1.61l-10.08,3.55v1.19l4.74,3.12v25.69l-5.09.76V352c2.8-.17,5.59-.25,8.47-.25,2.62,0,5.33.08,8,.25v-2.28l-4.41-.76v-26.2a14.39,14.39,0,0,1,7.72-2.37c3,0,5,.67,6.28,2s1.86,3.46,1.86,7.27v19.27l-4.41.76V352c2.8-.17,4.92-.25,7.79-.25,2.62,0,6.09.08,8.72.25"/><path class="d" d="M108.09,271.45l-.26-1.52c-.84-.08-7.2-.17-8.22-1.43,0,0-10.6-12.13-11.27-13.31L99.28,240.6l7.46-.76v-2.29c-2.8.17-5.59.25-8.47.25-2.63,0-5.68-.08-8.31-.25v2.29l6.78.76-9.58,13.31L73.78,238.23c1.44-.85,9.14-4.4,9.14-11.78,0-4.49-4-8.13-10.67-8.13-7.29,0-11.94,4.48-11.94,11.17,0,4.92,3.55,7.88,6,11.1-4.23,1.78-15.5,5.85-15.5,17.63,0,7.88,5.84,15.68,15,15.68,8.82,0,15.26-9.23,18-12.45L91.9,271c1.7,1.95,2.71,2.88,5.17,2.88a35.05,35.05,0,0,0,11-2.46M77.68,227.12c0,4.07-2,8.31-4.67,10.09-1-1.36-6.78-6.7-6.78-11.36A5.51,5.51,0,0,1,72.17,220c4.07,0,5.52,3.73,5.52,7.12m5,33c-1.78,2.12-6.35,8.14-12.88,8.14-6,0-11.87-5.51-11.87-13.31,0-8.31,7.46-12.29,9.41-13.14ZM188,221.63v-2.37c-2.8.17-3.81.25-6.69.25-2.63,0-5.85-.08-8.47-.25v2.37l6.69,1.1-11.78,30.42c-1.27,3.39-3.47,9.07-3.47,9.07h-.09s-3-7.28-4.91-12l-2.88-7.63,8.22-19.83,5.85-1.1v-2.37c-2.8.17-3.65.25-6.44.25s-5.43-.08-8-.25v2.37l6,1.1-6.78,16.86-6.53-16.86,5.17-1.1v-2.37H114.53v2.34l6.78,1.13,20.59,52.19h.93l9-23.38L161,274.92h.93l20.34-52.19ZM150.63,248.4l-1.95,4.83c-1.27,3.39-3.56,9-3.56,9H145s-3-7.28-4.83-12l-10.59-27.45,4.57-1.21,6,1.21h.17Zm51.74-28.3a4.37,4.37,0,0,0-4.4-4.4,4.4,4.4,0,0,0,0,8.8,4.37,4.37,0,0,0,4.4-4.4m4.24,52.78V270.6l-5.17-.76V236.09h-1.36l-10.42,4.23v1.18l4.83,2.62v25.72l-5.17.76v2.28c2.8-.17,5.68-.25,8.56-.25,2.62,0,6.1.08,8.72.25m31-32.29a4.32,4.32,0,0,0-4.57-4.31c-3.82,0-7.12,3.3-9.92,8.46h-.08l.08-8.46h-1.61l-10.42,3.55V241l5.09,3.13v25.69l-5.09.76v2.28c2.8-.17,6-.25,8.89-.25,2.62,0,7,.08,9.66.25V270.6l-6.53-.76V247.36c1-2.12,3.48-5.75,5.51-5.75l3.9,3.63a1.77,1.77,0,0,0,.85.17,4.57,4.57,0,0,0,4.24-4.82M266.94,268l-1-.76c-1.19,1.27-3.14,1.7-5.51,1.7-2.54,0-4.15-.6-5.17-1.61-1.61-1.61-1.69-4.24-1.69-8.14V243.9h11.35v-5.59h-.17a3.58,3.58,0,0,1-2.54.68h-8.64V232H252.2a52.33,52.33,0,0,1-11,10.67v1.19h5.42v18.48c0,5,.77,7.46,2.54,9.32,1.44,1.43,3.56,2.2,6.6,2.2,6.78,0,10.34-4.15,11.19-5.93m43.16,4.91V270.6l-5.17-.76V248.45c0-5.07-.76-7.61-2.79-9.64-1.61-1.6-4-2.53-7.37-2.53A17.13,17.13,0,0,0,282.14,242V215.27h-1.61l-10.08,3.56V220l4.74,3.14v46.69l-5.09.76v2.28c2.8-.17,5.59-.25,8.47-.25,2.62,0,5.33.08,8,.25V270.6l-4.41-.76v-26.2a14.86,14.86,0,0,1,7.64-2.37c3,0,5.09.67,6.36,2s1.86,3.46,1.86,7.27v19.27l-4.41.76v2.28c2.8-.17,4.92-.25,7.79-.25,2.62,0,6.1.08,8.72.25"/><path class="d" d="M107.75,142.53v-2.37c-2.8.17-9.32.25-12.11.25s-9.49-.08-12.12-.25v2.37l7.89,1.1v21.7H65.55v-21.7l7.88-1.1v-2.37c-2.8.17-9.32.25-12.11.25s-9.49-.08-12.11-.25v2.37l7.88,1.1v46.7l-7.88,1.1v2.37c2.8-.17,9.32-.26,12.11-.26s9.49.08,12.11.26v-2.37l-7.88-1.1V167.44H91.41v22.89l-7.89,1.1v2.37c2.8-.17,9.33-.26,12.12-.26s9.48.08,12.11.26v-2.37l-7.88-1.1v-46.7ZM144,189.23,142.88,188a4.69,4.69,0,0,1-3.55,2.21c-2,0-2-1.61-2-4.07,0,0,.17-18.23.17-19.16,0-6.86-3-9.82-8.72-9.82a12.17,12.17,0,0,0-6,1.52c-.6.42-6.27,5.16-7.37,6-1.52,1.27-3.47,3-3.47,5.08,0,1,.51,1.78,1.69,1.52l3-.68c.85-.17.85-.59.85-1.36a8.08,8.08,0,0,1,2-5.93,6.58,6.58,0,0,1,4.75-1.7c4,0,6.36,2,6.36,6.95,0,2.89-.09,7.38-.09,7.38,0,.42,0,.51-.42.68-3.9,1.27-7.63,2.37-11.11,3.56-3.13,1.1-5.58,3.39-5.58,7.12,0,4.41,3,7.45,7.53,7.45,5,0,8.49-4.23,9.5-5.25h.08c.09,1.52.34,5.25,4.83,5.25s7.45-3.55,8.72-5.58m-13.64-1.87c0,.68-2.29,3.05-5.6,3.05s-4.66-2.12-4.66-4.66a4.78,4.78,0,0,1,2-4,15.66,15.66,0,0,1,4.75-2.29c1.19-.42,3.56-1.1,3.56-1.1Zm53.09,4v-1.52H180c-1.1,0-1.36-.42-1.36-1.61V157.61l-11.17.77v2.12l4.24,1v25.94a13.46,13.46,0,0,1-7.72,2.37c-2.55,0-4.58-.51-5.85-1.86-1.19-1.19-1.78-2.8-1.78-6.61V157.61l-11.77.77v2.12l4.83,1V182.7c0,4.91.76,7.54,2.79,9.57,1.61,1.61,4,2.54,7.37,2.54,6.78,0,10.34-3.89,12.13-5.75v5.08l1.1.93Zm29.51-6.95c0-5.85-3.56-8.56-9.4-11.19l-2.71-1.27c-4.83-2.2-7.12-3.65-7.12-7.29,0-3.22,2.37-5.59,6-5.59,5.43,0,8,5.25,9.07,9.07h1.87l-.42-9.24a31.91,31.91,0,0,0-9.41-1.68c-6.78,0-12.28,3.38-12.28,10.41,0,6.53,3.89,8.56,9.23,11.11l2,.93c5.09,2.46,7,4.06,7,7.2,0,3.4-1.95,6.11-6.61,6.11-4.92,0-7.72-4.07-9.58-10.26h-1.94l.42,10.17a32.23,32.23,0,0,0,10.67,1.94c7,0,13.21-2.53,13.21-10.42m36.66-14.92c0-6.27-4.32-12.28-13.64-12.28A16.88,16.88,0,0,0,223,163a20.11,20.11,0,0,0-4.82,13.64c0,11.61,7.79,18.21,16.51,18.21,9.15,0,13.23-6.77,14.67-10.58l-1.61-.76c-1.1,2-3.47,6.36-10,6.36-7.37,0-12.12-6.28-12.12-15.85a26.34,26.34,0,0,1,.42-4.84l23.13.77Zm-7.12-3.72c0,1.45-.51,1.78-1.95,1.78H226.39c1-4,3.73-8.57,9.4-8.57a6.45,6.45,0,0,1,4.57,1.61,7.45,7.45,0,0,1,2.12,5.18m37.89-4.24a4.33,4.33,0,0,0-4.58-4.31c-3.81,0-7.12,3.3-9.91,8.45h-.08l.08-8.45h-1.61l-10.41,3.55v1.18l5.08,3.13v25.69l-5.08.77v2.28c2.8-.17,6-.26,8.89-.26,2.62,0,7,.08,9.66.26v-2.28l-6.53-.77V168.26c1-2.11,3.48-5.75,5.51-5.75l3.9,3.64a1.86,1.86,0,0,0,.85.17,4.56,4.56,0,0,0,4.24-4.82"/></g></svg>