<?xml version="1.0" encoding="UTF-8"?>
<svg width="76px" height="101px" viewBox="0 0 76 101" version="1.1" xmlns="http://www.w3.org/2000/svg" xmlns:xlink="http://www.w3.org/1999/xlink">
    <!-- Generator: Sketch 52.6 (67491) - http://www.bohemiancoding.com/sketch -->
    <title>Motief</title>
    <desc>Created with Sketch.</desc>
    <g id="Page-1" stroke="none" stroke-width="1" fill="none" fill-rule="evenodd">
        <g id="Motief" fill="#FFFFFF">
            <g id="Group">
                <path d="M0.355989583,40.7812301 C2.32137349,23.2338229 7.39175726,0 28.7420387,0 C28.9565267,0 29.1766306,0.00237599989 29.3945746,0.00712799967 C41.8119821,0.268487988 45.5803179,9.25084757 48.0731738,15.1947353 C49.5320377,18.6727671 50.4772537,20.719367 51.9702456,20.719367 C52.0620456,20.719367 52.1562216,20.711591 52.2525576,20.695823 C53.7323735,20.4623271 54.0915815,19.4784471 54.6475655,17.6113432 C55.2981574,15.4293113 56.1898054,12.4394394 60.7476212,11.6931595 C61.1009972,11.6346235 61.4515652,11.6054635 61.7991091,11.6054635 C63.2648851,11.6054635 64.674501,12.1251594 65.9968529,13.1535354 C70.7495007,16.8467032 74.3243006,27.4777907 75.5589565,41.5920941 C76.5503965,52.9446215 73.4101886,76.1231485 60.7605812,89.9912118 C54.3775655,96.9891795 46.4665658,100.557715 37.2476863,100.601779 C37.1928223,100.601779 37.1379583,100.602859 37.0841743,100.602859 C28.1342147,100.602859 20.4359967,97.0837875 14.1983489,90.1406838 C2.89074947,77.5567404 -1.32492234,55.7839414 0.355989583,40.7812301 Z M58.5055413,26.2716468 C57.5141013,26.2716468 56.5719094,26.6327988 55.8297334,27.2995907 C55.0350694,28.0160627 54.5661335,28.9988627 54.5091095,30.0700066 C54.3941975,32.2768785 56.0954134,34.1675264 58.3022853,34.2826544 C60.5037572,34.3923824 62.3987251,32.6952705 62.5149331,30.4883986 C62.5708771,29.4183346 62.2073491,28.3901747 61.4910931,27.5955107 C60.7748372,26.8006308 59.7907412,26.3327748 58.7217573,26.2768308 C58.6498293,26.2738068 58.5776853,26.2716468 58.5055413,26.2716468 Z" id="Combined-Shape" opacity="0.300000012"></path>
                <path d="M30.7473826,74.6485165 L30.4449826,74.6485165 L30.4380706,74.6305885 L28.0456547,68.7817408 L27.3503507,68.6493328 L27.3503507,68.2019968 L27.3797267,68.2030768 C27.8570867,68.2346128 28.2499907,68.2471408 28.6947347,68.2471408 C29.1720946,68.2471408 29.6399506,68.2335328 30.1257346,68.2030768 L30.1551106,68.2019968 L30.1551106,68.6504128 L30.1319986,68.6536528 L29.3768626,68.7795808 L30.5186386,71.5975167 C30.6313906,71.8841487 30.8944786,72.5699486 30.9674866,72.7611086 C31.0288306,72.5911166 31.2294946,72.0312447 31.3145985,71.7750687 L32.3423265,68.7806608 L31.4448465,68.6504128 L31.4448465,68.2019968 L31.4742225,68.2030768 L31.6239105,68.2136608 C31.9695105,68.2356928 32.1427425,68.2471408 32.5544385,68.2471408 C32.9860065,68.2471408 33.1305105,68.2367728 33.4182225,68.2147408 L33.5910224,68.2009168 L33.5910224,68.6504128 L33.5679104,68.6536528 L32.7950625,68.7828208 L30.7473826,74.6485165 Z M52.3009416,74.5307965 C51.5131896,74.5307965 50.7442296,74.3102606 50.4480937,74.1949166 L50.4314617,74.1873566 L50.4303817,74.1696446 L50.3578057,72.3841886 L50.7431496,72.3841886 L50.7496296,72.4040606 C51.1077576,73.5994046 51.6233496,74.1549566 52.3743816,74.1549566 C53.0811335,74.1549566 53.4865655,73.7810606 53.4865655,73.1287406 C53.4865655,72.5826926 53.1167735,72.3116126 52.2881976,71.9115807 L51.9531816,71.7508767 C51.0887496,71.3402607 50.3431177,70.9851567 50.3431177,69.8088208 C50.3431177,68.6830288 51.1665096,67.9836208 52.4918856,67.9836208 C53.1567335,67.9836208 53.7375575,68.1600928 54.0494615,68.2534048 L54.1419095,68.2819168 L54.1429895,68.3017888 L54.2164295,69.9254608 L53.8446935,69.9254608 L53.8384295,69.9045088 C53.7144455,69.4403248 53.3174375,68.3605408 52.3009416,68.3605408 C51.7052136,68.3605408 51.2904936,68.7461008 51.2904936,69.2975488 C51.2904936,69.9086128 51.6790776,70.1533407 52.5035496,70.5304767 L52.9709735,70.7499327 C53.9822855,71.2035327 54.6093335,71.6888847 54.6093335,72.7055966 C54.6093335,73.8827966 53.7889655,74.5307965 52.3009416,74.5307965 Z M40.5831581,74.5307965 C39.8027502,74.5307965 39.0854142,74.2357406 38.5618302,73.7022206 C38.0010942,73.1287406 37.7049583,72.3336446 37.7049583,71.4031167 C37.7049583,70.4633007 37.9846782,69.6388288 38.5145262,69.0169648 C39.0905982,68.3512528 39.9392621,67.9836208 40.9045661,67.9836208 C42.117622,67.9836208 43.068022,68.5475968 43.068022,69.2679568 C43.068022,69.6524368 42.803422,69.9107728 42.410518,69.9107728 C42.287614,69.9107728 42.162766,69.8729728 42.0575741,69.8036368 L42.0523901,69.8006128 L42.0491501,69.7941328 L41.2782461,68.4393808 C41.1659261,68.3722048 40.9842701,68.3311648 40.8026141,68.3311648 C39.7187262,68.3311648 39.0465342,69.3174208 39.0465342,70.9065327 C39.0465342,72.5511566 39.8666862,73.6140926 41.1376301,73.6140926 C42.175294,73.6140926 42.593254,72.8997806 42.793918,72.5574206 L42.823294,72.5081726 L42.846406,72.5196206 L43.124614,72.6667166 L43.115326,72.6855086 L43.140598,72.6909086 L43.140598,72.7371326 L43.125694,72.7306526 C42.639478,73.9080686 41.7603581,74.5307965 40.5831581,74.5307965 Z M11.8894602,74.5307965 C10.7882923,74.5307965 9.98693234,74.1391886 9.60202035,73.9510526 C9.56011636,73.9311806 9.52274836,73.9132526 9.49013236,73.8974846 L9.29011637,74.3124206 L8.91190039,74.3124206 L8.90930839,74.2871486 L8.6436284,71.6731167 L8.6686844,71.6690127 L9.07325238,71.5923327 L9.08102838,71.6143647 C9.45082036,72.6740606 10.1461243,74.0813006 11.9045802,74.0813006 C13.4187402,74.0813006 13.8224442,72.9323966 13.8224442,72.2528607 C13.8224442,71.0303007 12.5847642,70.6123407 11.5907323,70.2762447 C10.3204363,69.8435968 8.96762838,69.2292928 8.96762838,67.3965329 C8.96762838,65.661405 10.4794123,64.884237 11.9778042,64.884237 C12.9439722,64.884237 13.5416442,65.149917 14.0205162,65.369589 L14.0909321,65.044941 L14.4451721,65.044941 L14.4479801,65.070213 L14.6842841,67.4688929 L14.2667561,67.4688929 L14.2613561,67.4468609 C13.9116522,66.0249329 13.1334042,65.304357 11.9488602,65.304357 C11.0539723,65.304357 10.1480683,65.8473809 10.1480683,66.8850449 C10.1480683,68.0328688 11.2326043,68.4121648 12.1043802,68.7156448 L12.2266362,68.7575488 C13.5027642,69.1955968 15.0901481,69.7405648 15.0901481,71.7992607 C15.0901481,73.8156206 13.3660362,74.5307965 11.8894602,74.5307965 Z M37.2049183,74.3564846 L37.1755423,74.3554046 C36.7627663,74.3281886 36.1730863,74.3113406 35.6726143,74.3113406 C35.1738704,74.3113406 34.6775024,74.3260286 34.1975504,74.3554046 L34.1681744,74.3564846 L34.1681744,73.9080686 L34.1917184,73.9048286 L35.0602544,73.7767406 L35.0602544,69.3804928 L34.2269264,68.9288368 L34.2269264,68.6892928 L34.2442064,68.6819488 L36.0516943,67.9488448 L36.3132703,67.9488448 L36.3132703,73.7767406 L37.2049183,73.9080686 L37.2049183,74.3564846 Z M25.5318468,74.3564846 L25.5024708,74.3554046 C25.0603188,74.3260286 24.3140389,74.3113406 23.8366789,74.3113406 C23.3215189,74.3113406 22.7633749,74.3271086 22.304807,74.3554046 L22.275431,74.3564846 L22.275431,73.9091486 L22.299191,73.9059086 L23.1530389,73.7778206 L23.1530389,69.3835168 L22.275431,68.8437328 L22.275431,68.6052688 L22.294439,68.5990048 L24.1004149,67.9836208 L24.4060549,67.9836208 L24.4054069,68.0119168 L24.3917989,69.3867568 C24.9110628,68.4562288 25.4815188,67.9836208 26.0878308,67.9836208 C26.4945588,67.9836208 26.9060388,68.2493008 26.9060388,68.7564688 C26.9060388,69.2869648 26.5122708,69.6157168 26.1467988,69.6157168 C26.0848068,69.6157168 26.0327508,69.6051328 25.9886868,69.5841808 L25.9819908,69.5789968 L25.3164948,68.9592928 C25.0056708,68.9718208 24.5998069,69.5295328 24.4054069,69.9297808 L24.4054069,73.7767406 L25.5318468,73.9080686 L25.5318468,74.3564846 Z M35.6862223,66.0070049 C35.2518464,66.0070049 34.8991184,65.652981 34.8991184,65.218173 C34.8991184,64.784445 35.2518464,64.430637 35.6862223,64.430637 C36.1279423,64.430637 36.4735423,64.777101 36.4735423,65.218173 C36.4735423,65.660541 36.1279423,66.0070049 35.6862223,66.0070049 Z M55.5249574,60.8837012 C53.6723255,60.8837012 52.4277336,59.5624292 52.4277336,57.5953173 C52.4277336,55.4560534 53.9937335,54.3365255 55.5407254,54.3365255 C57.0246454,54.3365255 58.6232613,55.3614454 58.6232613,57.6100053 C58.6232613,59.5678292 57.3775893,60.8837012 55.5249574,60.8837012 Z M46.4181818,60.8837012 C45.8982699,60.8837012 45.5191899,60.7566932 45.2597739,60.4961972 C44.9342619,60.1557812 44.8124379,59.7147092 44.8124379,58.8682053 L44.8124379,55.7081254 L43.876726,55.7081254 L43.876726,55.4601574 L43.889254,55.4517334 C44.5013979,55.0380934 45.3679899,54.1989335 45.7807659,53.6181095 L45.7891899,53.6053655 L46.0663179,53.6053655 L46.0663179,54.8048135 L47.5292858,54.8048135 C47.7897818,54.8048135 47.8833098,54.7480055 47.9504858,54.6935735 L47.9589098,54.6873095 L48.0250058,54.6873095 L48.0250058,55.7081254 L46.0663179,55.7081254 L46.0663179,58.3115733 C46.0663179,58.9962933 46.0853259,59.4311012 46.3499259,59.6969972 C46.5315818,59.8786532 46.8173498,59.9657012 47.2227818,59.9657012 C47.6763818,59.9657012 47.9716538,59.8754132 48.1511498,59.6823092 L48.1690778,59.6633012 L48.1889498,59.6790692 L48.3833498,59.8250852 L48.3738458,59.8449572 C48.2362538,60.1337492 47.6176298,60.8837012 46.4181818,60.8837012 Z M40.6617821,60.8837012 C39.8813742,60.8837012 39.1640382,60.5886452 38.6411022,60.0551252 C38.0807982,59.4816452 37.7844462,58.6876293 37.7844462,57.7560213 C37.7844462,56.8140454 38.0643822,55.9895734 38.5948782,55.3698694 C39.1692222,54.7041575 40.0178861,54.3365255 40.9829741,54.3365255 C42.195166,54.3365255 43.145566,54.9005015 43.145566,55.6208614 C43.145566,56.0042614 42.88183,56.2625974 42.489142,56.2625974 C42.331678,56.2625974 42.210718,56.2047094 42.137278,56.1565414 L42.132094,56.1533014 L42.12907,56.1470374 L41.3581661,54.7922855 C41.2456301,54.7251095 41.0628941,54.6840695 40.8801581,54.6840695 C39.7815822,54.6840695 39.1262382,55.6461334 39.1262382,57.2592213 C39.1262382,58.9040613 39.9466061,59.9657012 41.2173341,59.9657012 C42.251758,59.9657012 42.670798,59.2548453 42.872542,58.9124853 L42.902998,58.8608613 L42.92611,58.8725253 L43.226566,59.0310693 L43.217062,59.0541813 C42.73387,60.2503892 41.8506461,60.8837012 40.6617821,60.8837012 Z M20.673899,60.8837012 C18.8206191,60.8837012 17.5755952,59.5624292 17.5755952,57.5953173 C17.5755952,55.4560534 19.1413791,54.3365255 20.687939,54.3365255 C22.173047,54.3365255 23.7707989,55.3614454 23.7707989,57.6100053 C23.7707989,59.5678292 22.526423,60.8837012 20.673899,60.8837012 Z M13.3078674,60.8837012 C12.0747234,60.8837012 10.9268995,60.4605572 10.0767235,59.6926772 C9.13150758,58.8388293 8.6321156,57.6331173 8.6321156,56.2057894 C8.6321156,52.7726856 11.0755075,51.2360616 13.4975154,51.2360616 C14.3103233,51.2360616 15.1112513,51.4187976 15.8774033,51.7790856 L15.9761153,51.4114536 L16.3448272,51.4114536 L16.3472032,51.4378056 L16.5694672,53.8071095 L16.2117712,53.8071095 L16.2055072,53.7872375 C15.7953233,52.4532216 14.7997793,51.6572616 13.5415794,51.6572616 C13.1927394,51.6572616 12.2995794,51.7317816 11.5429315,52.4301096 C10.7337955,53.1759575 10.3236115,54.3879335 10.3236115,56.0314774 C10.3236115,58.0627413 11.1621235,60.4331252 13.5262434,60.4331252 C14.9047553,60.4331252 15.7953233,59.7272372 16.2484912,58.2748533 L16.2549712,58.2549813 L16.6139632,58.2549813 L16.6109392,58.2854373 L16.3888912,60.6370292 L16.0201793,60.6370292 L16.0149953,60.6158612 L15.9218993,60.2693972 C15.1201073,60.6767732 14.2405553,60.8837012 13.3078674,60.8837012 Z M51.9687336,60.7083092 L51.9382776,60.7072292 C51.5213976,60.6810932 50.9321496,60.6642452 50.4364297,60.6642452 C49.9439497,60.6642452 49.4482297,60.6778532 48.9620137,60.7072292 L48.9313417,60.7083092 L48.9313417,60.2620532 L48.9555337,60.2588132 L49.8240697,60.1305092 L49.8240697,55.7342614 L48.9903097,55.2806614 L48.9903097,55.0411174 L49.0080217,55.0337734 L50.8157256,54.3028295 L51.0770856,54.3028295 L51.0770856,60.1305092 L51.9687336,60.2620532 L51.9687336,60.7083092 Z M30.9951346,60.7083092 L30.9657586,60.7072292 C30.5482306,60.6810932 29.9637346,60.6642452 29.4775186,60.6642452 C28.9865507,60.6642452 28.5091907,60.6778532 28.0175747,60.7072292 L27.9881987,60.7083092 L27.9881987,60.2620532 L28.0119587,60.2588132 L28.8658067,60.1305092 L28.8658067,52.1413176 L28.0322627,51.6898776 L28.0322627,51.4503336 L28.0497587,51.4429896 L29.8561666,50.7098856 L30.1181746,50.7098856 L30.1181746,60.1305092 L30.9951346,60.2620532 L30.9951346,60.7083092 Z M66.1860689,60.7083092 L66.1556129,60.7072292 C65.737653,60.6810932 65.147541,60.6642452 64.652685,60.6642452 C64.141197,60.6642452 63.772701,60.6800132 63.3093811,60.7072292 L63.2791411,60.7083092 L63.2791411,60.2629172 L63.3022531,60.2588132 L64.040541,60.1318052 L64.040541,56.8295974 C64.040541,56.1807334 63.952197,55.8351334 63.726477,55.5945094 C63.5100451,55.3657654 63.1625011,55.2543094 62.6635411,55.2543094 C62.2172851,55.2543094 61.7781571,55.3867174 61.3601972,55.6502374 L61.3601972,60.1318052 L62.1215971,60.2629172 L62.1215971,60.7083092 L62.0911411,60.7072292 C61.6353811,60.6778532 61.1733572,60.6642452 60.7184612,60.6642452 C60.2290052,60.6642452 59.7512132,60.6778532 59.2598133,60.7072292 L59.2291413,60.7083092 L59.2291413,60.2620532 L59.2533333,60.2588132 L60.1063172,60.1305092 L60.1063172,55.7364214 L59.2881093,55.1966374 L59.2881093,54.9581735 L59.3069013,54.9519095 L61.0545572,54.3365255 L61.3601972,54.3365255 L61.3601972,55.2880054 C61.6375411,55.0022375 62.3453731,54.3365255 63.5132851,54.3365255 C64.074021,54.3365255 64.507749,54.4866455 64.803885,54.7827815 C65.161149,55.1387494 65.294421,55.5958054 65.294421,56.4652054 L65.294421,60.1305092 L66.1860689,60.2620532 L66.1860689,60.7083092 Z M27.3008867,60.7083092 L27.2715107,60.7072292 C26.8466388,60.6800132 26.2757508,60.6642452 25.7821908,60.6642452 C25.2923028,60.6642452 24.8149428,60.6778532 24.3222469,60.7072292 L24.2928709,60.7083092 L24.2928709,60.2620532 L24.3166309,60.2588132 L25.1704788,60.1305092 L25.1704788,52.1413176 L24.3369349,51.6898776 L24.3369349,51.4503336 L24.3544309,51.4429896 L26.1619188,50.7098856 L26.4228468,50.7098856 L26.4228468,60.1305092 L27.3008867,60.2620532 L27.3008867,60.7083092 Z M55.3936294,54.7134455 C54.1229015,54.7134455 53.8561415,56.1135574 53.8561415,57.2885973 C53.8561415,58.0437333 53.9842295,60.5065652 55.6426774,60.5065652 C56.2023334,60.5065652 56.6224534,60.2093492 56.8902934,59.6222612 C57.1548934,59.0405733 57.1937733,58.3411653 57.1937733,57.9754773 C57.1937733,56.9946214 57.0183814,54.7134455 55.3936294,54.7134455 Z M20.541491,54.7134455 C19.2711951,54.7134455 19.0044351,56.1135574 19.0044351,57.2885973 C19.0044351,58.0437333 19.1331711,60.5065652 20.789891,60.5065652 C21.350195,60.5065652 21.769775,60.2093492 22.038047,59.6222612 C22.303295,59.0405733 22.343039,58.3411653 22.343039,57.9754773 C22.343039,56.9946214 22.167215,54.7134455 20.541491,54.7134455 Z M50.4500377,52.3588296 C50.0163097,52.3588296 49.6625017,52.0048056 49.6625017,51.5710776 C49.6625017,51.1373496 50.0163097,50.7833256 50.4500377,50.7833256 C50.8913256,50.7833256 51.2377896,51.1300056 51.2377896,51.5710776 C51.2377896,52.0121496 50.8913256,52.3588296 50.4500377,52.3588296 Z M27.9195107,47.4115658 L27.7216547,47.4115658 L27.7143107,47.3936378 L26.1608388,43.425718 L24.6306949,47.4115658 L24.4306789,47.4115658 L24.4233349,47.3942858 L20.8776734,38.4028542 L19.6998255,38.2071582 L19.6998255,37.7511822 L26.5390548,37.7511822 L26.5390548,38.2112622 L25.6577748,38.3983182 L26.7196308,41.1525341 L27.8523347,38.3855742 L26.8494468,38.2123422 L26.8494468,37.7492382 L26.8788228,37.7511822 C27.3382547,37.7807742 27.8050307,37.7954622 28.2666227,37.7954622 C28.6675187,37.7954622 28.8316787,37.7848782 29.1589186,37.7643582 L29.4051586,37.7492382 L29.4051586,38.2116942 L28.3886627,38.4024222 L26.9801267,41.7994541 L27.4743347,43.104526 C27.7562147,43.822726 28.1916707,44.8426779 28.2886547,45.0705579 C28.3674947,44.8679499 28.6811267,44.058166 28.8705587,43.552942 L30.8903746,38.3393502 L29.7596146,38.2138542 L29.7596146,37.7492382 L29.7889906,37.7511822 C30.2218546,37.7786142 30.7679026,37.7954622 31.2500146,37.7954622 C31.6822305,37.7954622 31.8653985,37.7837982 32.2308705,37.7617662 L32.4326145,37.7492382 L32.4326145,38.2116942 L32.4099345,38.2160142 L31.4305905,38.4024222 L27.9195107,47.4115658 Z M16.7149216,47.2366058 C16.2874576,47.2366058 16.1083937,47.0823818 15.8012417,46.7298698 L14.4190577,45.1036059 C14.3765057,45.1545819 14.3285537,45.2137659 14.2762817,45.2789979 C13.7248338,45.9632859 12.6981858,47.2366058 11.3192419,47.2366058 C10.5777139,47.2366058 9.90076994,46.9342058 9.41304196,46.3855658 C8.96289798,45.8781819 8.704994,45.1928139 8.704994,44.5050699 C8.704994,42.55243 10.5090259,41.8042061 11.2792819,41.4849581 C11.3080099,41.4728621 11.3358739,41.4618461 11.3622259,41.4508301 C11.2833859,41.3488781 11.1995779,41.2497341 11.1112339,41.1447581 C10.7336659,40.6967741 10.3429219,40.2330221 10.3429219,39.5472222 C10.3429219,38.3583582 11.1626419,37.5900463 12.4314258,37.5900463 C13.5319458,37.5900463 14.3002577,38.1782142 14.3002577,39.0199662 C14.3002577,40.2036461 13.1645298,40.8263741 12.7910658,41.0311421 C12.7711938,41.0421581 12.7532658,41.0516621 12.7381458,41.0600861 L14.9493377,43.646902 L16.5237616,41.4875501 L15.4575857,41.3557901 L15.4575857,40.9067261 L15.4871777,40.9088861 C15.9172337,40.9361021 16.4390896,40.9518701 16.9190416,40.9518701 C17.4186496,40.9518701 17.8964416,40.9378301 18.3794175,40.9088861 L18.4090095,40.9067261 L18.4090095,41.3562221 L17.1097696,41.4892781 L15.2424497,43.979326 C15.4236737,44.2512699 17.1559936,46.2352299 17.1739216,46.2557499 C17.3145376,46.4304938 18.1279936,46.4711018 18.4340655,46.4862218 C18.5008095,46.4898938 18.5502735,46.4920538 18.5744655,46.4946458 L18.5954175,46.4968058 L18.6463935,46.8017978 L18.6263055,46.8108698 C18.0953776,47.0376698 17.2026496,47.2366058 16.7149216,47.2366058 Z M11.5749859,41.7007421 C11.3406259,41.8067981 9.98695394,42.481582 9.98695394,43.933534 C9.98695394,45.3347259 11.0349859,46.2021819 12.0065538,46.2021819 C13.0126818,46.2021819 13.7237538,45.3172299 14.0656817,44.8925739 C14.0965697,44.8541259 14.1244337,44.8189179 14.1501377,44.7880299 L11.5749859,41.7007421 Z M22.367447,38.3965902 L24.1844389,43.104526 C24.4673989,43.824886 24.8981028,44.8485099 24.9920628,45.0727179 C25.0687428,44.8798299 25.3726548,44.109574 25.5623028,43.60543 L25.9072548,42.74899 L24.1686709,38.4056622 L24.1580869,38.4056622 L23.1204229,38.1972222 L22.367447,38.3965902 Z M12.4160898,37.9371582 C11.6814739,37.9371582 11.4205459,38.4654942 11.4205459,38.9180142 C11.4205459,39.5655822 12.0948978,40.3112141 12.4182498,40.6693421 C12.4817538,40.7393261 12.5342418,40.7969981 12.5683698,40.8395501 C13.0100898,40.5250541 13.3403538,39.7999422 13.3403538,39.1370382 C13.3403538,38.5568622 13.0971378,37.9371582 12.4160898,37.9371582 Z M29.8006546,33.6370304 L29.7885586,33.6270944 L29.5889746,33.4575344 L29.5889746,32.6386785 C29.2755586,32.9663505 28.6474307,33.5892944 27.5242307,33.5892944 C26.9628468,33.5892944 26.5284708,33.4389584 26.2329828,33.1434705 C25.8763668,32.7868545 25.7435268,32.3336865 25.7435268,31.4718465 L25.7435268,27.8385107 L24.9095508,27.6637667 L24.9095508,27.2488307 L24.9359028,27.2473187 L26.9958947,27.1140467 L26.9958947,31.2383506 C26.9958947,31.9213425 27.1108067,32.1734145 27.2957027,32.3583105 C27.4926947,32.5695585 27.8166947,32.6717265 28.2856307,32.6717265 C28.8759587,32.6717265 29.2613026,32.4822945 29.5889746,32.2757985 L29.5889746,27.8380787 L28.8580307,27.6631187 L28.8580307,27.2488307 L28.8837347,27.2473187 L30.8419906,27.1140467 L30.8419906,32.4224625 C30.8419906,32.6229105 30.8823826,32.6717265 31.0482706,32.6717265 L31.6612785,32.6717265 L31.6612785,32.9831985 L31.6429185,32.9894625 L29.8006546,33.6370304 Z M34.4511344,33.5892944 C33.6534464,33.5892944 32.8916145,33.3691905 32.5995825,33.2525505 L32.5827345,33.2462865 L32.5823025,33.2279265 L32.5077825,31.4441985 L32.8935585,31.4441985 L32.8993905,31.4640705 C33.2585985,32.6572545 33.7748384,33.2132385 34.5241424,33.2132385 C35.2321904,33.2132385 35.6384863,32.8393425 35.6384863,32.1881025 C35.6384863,31.6420545 35.2682624,31.3709745 34.4390384,30.9698626 L34.1025104,30.8098066 C33.2395905,30.3987586 32.4950385,30.0430066 32.4950385,28.8677507 C32.4950385,27.7419587 33.3173505,27.0429827 34.6416464,27.0429827 C35.3118944,27.0429827 35.8925023,27.2194547 36.2046223,27.3140627 L36.2912383,27.3401987 L36.2923183,27.3600707 L36.3668383,28.9839587 L35.9946703,28.9839587 L35.9892703,28.9634387 C35.8659343,28.4986067 35.4700064,27.4179587 34.4511344,27.4179587 C33.8562704,27.4179587 33.4402544,27.8039507 33.4402544,28.3562627 C33.4402544,28.9681907 33.8288384,29.2129186 34.6533104,29.5894066 L35.1222464,29.8088626 C36.1326943,30.2624626 36.7590943,30.7482466 36.7590943,31.7645265 C36.7590943,32.9412945 35.9393743,33.5892944 34.4511344,33.5892944 Z M18.5847903,33.4160625 L18.5554143,33.4139025 C18.1080784,33.3853905 16.9412464,33.3696225 16.4669104,33.3696225 C15.9953825,33.3696225 14.8622465,33.3849585 14.3779745,33.4139025 L14.3485985,33.4160625 L14.3485985,32.8723905 L14.3727905,32.8687185 L15.7091825,32.6833905 L15.7091825,28.8658067 L11.3029987,28.8658067 L11.3029987,32.6833905 L12.6629346,32.8723905 L12.6629346,33.4160625 L12.6335586,33.4139025 C12.1866546,33.3853905 11.0193907,33.3696225 10.5446227,33.3696225 C10.0730947,33.3696225 8.94039079,33.3849585 8.45676681,33.4139025 L8.42717481,33.4160625 L8.42717481,32.8723905 L8.45136681,32.8687185 L9.78624675,32.6833905 L9.78624675,24.8281188 L8.42717481,24.6378229 L8.42717481,24.1017109 L8.45676681,24.1038709 C8.90367079,24.1321669 10.0705027,24.1479349 10.5446227,24.1479349 C11.0167987,24.1479349 12.1499346,24.1328149 12.6335586,24.1038709 L12.6629346,24.1017109 L12.6629346,24.6378229 L12.6389586,24.6414949 L11.3029987,24.8281188 L11.3029987,28.3657667 L15.7091825,28.3657667 L15.7091825,24.8281188 L14.3485985,24.6378229 L14.3485985,24.1017109 L14.3779745,24.1038709 C14.8248785,24.1321669 15.9923585,24.1479349 16.4669104,24.1479349 C16.9386544,24.1479349 18.0713584,24.1328149 18.5554143,24.1038709 L18.5847903,24.1017109 L18.5847903,24.6378229 L18.5608143,24.6414949 L17.2252864,24.8281188 L17.2252864,32.6833905 L18.5847903,32.8723905 L18.5847903,33.4160625 Z M47.0378858,33.4160625 L47.0076458,33.4139025 C46.5747818,33.3864705 45.8207259,33.3696225 45.3429339,33.3696225 C44.8366299,33.3696225 44.2778379,33.3860385 43.810414,33.4139025 L43.780174,33.4160625 L43.780174,32.9680785 L44.6582139,32.8363185 L44.6582139,28.4430947 L43.780174,27.9030947 L43.780174,27.6631187 L43.798966,27.6568547 L45.6053739,27.0429827 L45.9120939,27.0429827 L45.9120939,27.0712787 L45.8963259,28.4471987 C46.4151578,27.5151587 46.9866938,27.0429827 47.5936538,27.0429827 C47.9999498,27.0429827 48.4116458,27.3075827 48.4116458,27.8138867 C48.4116458,28.3448147 48.0178778,28.6729187 47.6524058,28.6729187 C47.5852298,28.6729187 47.5336058,28.6625507 47.4927818,28.6409507 L47.4875978,28.6368467 L46.8227498,28.0175747 C46.5117098,28.0303187 46.1054139,28.5869507 45.9120939,28.9869827 L45.9120939,32.8356705 L47.0378858,32.9674305 L47.0378858,33.4160625 Z M22.465727,32.2762305 L22.479767,30.7253506 C22.479767,30.7253506 22.070015,30.8426386 21.865679,30.9156466 C21.558203,31.0178146 21.236579,31.1502226 21.046283,31.3104945 C20.825747,31.4856705 20.694635,31.6910865 20.694635,31.9975905 C20.694635,32.4365025 20.928995,32.8021905 21.499019,32.8021905 C22.070015,32.8021905 22.465727,32.3935185 22.465727,32.2762305 Z M24.8177508,32.5976385 C24.5982949,32.9484225 24.0725509,33.5612144 23.3120149,33.5612144 C22.538951,33.5612144 22.494887,32.9192625 22.479767,32.6557425 L22.465727,32.6557425 C22.289255,32.8311345 21.689207,33.5612144 20.825747,33.5612144 C20.0373471,33.5612144 19.5265071,33.0354705 19.5265071,32.2762305 C19.5265071,31.6321185 19.9502991,31.1329426 20.4902991,30.9426466 C21.089267,30.7383106 21.733271,30.5477986 22.406543,30.3285586 C22.479767,30.2993986 22.479767,30.2844946 22.479767,30.2112706 C22.479767,30.2112706 22.494887,29.5401586 22.494887,29.0433587 C22.494887,28.1808707 22.084919,27.8441267 21.396851,27.8441267 C21.016043,27.8441267 20.767643,27.9614147 20.577347,28.1368067 C20.2997871,28.4141507 20.2278591,28.7949587 20.2278591,29.1606466 C20.2278591,29.2917586 20.2278591,29.3647666 20.0816271,29.3939266 L19.5705711,29.5112146 C19.3653711,29.5552786 19.2781071,29.4239506 19.2781071,29.2476946 C19.2781071,28.8820067 19.6137711,28.4960147 19.8772911,28.2765587 C20.0665071,28.1303267 21.046283,27.3119027 21.148451,27.2386787 C21.323627,27.1365107 21.689207,26.9762387 22.187087,26.9762387 C23.1657829,26.9762387 23.6917429,27.4870787 23.6917429,28.6711907 C23.6917429,28.8325427 23.6627989,32.0708145 23.6627989,32.0708145 C23.6627989,32.4956865 23.6627989,32.7730305 24.0133669,32.7730305 C24.2768869,32.7730305 24.5101669,32.5686945 24.6274549,32.3935185 L24.8177508,32.5976385 Z M41.7793661,28.5526067 C41.7793661,28.2988067 41.6804381,27.9331187 41.4277181,27.6944387 C41.2588061,27.5395667 41.0201261,27.4276787 40.6695581,27.4276787 C39.7284462,27.4276787 39.2789502,28.1869187 39.1100382,28.8483107 L41.4555821,28.8472307 C41.6944781,28.8472307 41.7793661,28.7912867 41.7793661,28.5526067 Z M43.065646,29.1893746 L42.992422,29.2623826 L39.0003102,29.2645426 C38.9713662,29.3956546 38.9273022,29.5991266 38.9273022,29.9645986 C38.9273022,31.6176465 39.7468062,32.7006705 41.0190461,32.7006705 C42.143974,32.7006705 42.553726,31.9543905 42.744022,31.6025265 L43.021582,31.7349345 C42.773182,32.3930865 42.07075,33.5609984 40.4920061,33.5609984 C38.9864862,33.5609984 37.6431823,32.4222465 37.6431823,30.4186306 C37.6431823,29.4667186 37.9496862,28.6493747 38.4745662,28.0644467 C39.0305502,27.4341587 39.8049102,27.0706307 40.7114621,27.0706307 C42.320446,27.0706307 43.065646,28.1085107 43.065646,29.1893746 Z M35.6384863,55.8744454 C35.6384863,55.6206454 35.5395584,55.2549574 35.2868384,55.0162774 C35.1179264,54.8614055 34.8792464,54.7495175 34.5286784,54.7495175 C33.5875664,54.7495175 33.1380705,55.5087574 32.9691585,56.1701494 L35.3147024,56.1690694 C35.5535984,56.1690694 35.6384863,56.1131254 35.6384863,55.8744454 Z M36.9247663,56.5112134 L36.8515423,56.5842214 L32.8594305,56.5863814 C32.8304865,56.7177094 32.7864225,56.9209654 32.7864225,57.2864373 C32.7864225,58.9394853 33.6059264,60.0225092 34.8781664,60.0225092 C36.0030943,60.0225092 36.4128463,59.2762293 36.6031423,58.9245813 L36.8807023,59.0567733 C36.6323023,59.7149252 35.9298703,60.8828372 34.3511264,60.8828372 C32.8456065,60.8828372 31.5023025,59.7440852 31.5023025,57.7404693 C31.5023025,56.7885574 31.8088065,55.9712134 32.3336865,55.3862854 C32.8896705,54.7559975 33.6640304,54.3924695 34.5705824,54.3924695 C36.1793503,54.3924695 36.9247663,55.4303494 36.9247663,56.5112134 Z M20.2772367,69.4908688 C20.2772367,69.2370688 20.1783087,68.8713808 19.9255887,68.6327008 C19.7566767,68.4778288 19.5179967,68.3659408 19.1674287,68.3659408 C18.2263168,68.3659408 17.7768208,69.1251808 17.6079088,69.7865728 L19.9534527,69.7854928 C20.1923487,69.7854928 20.2772367,69.7295488 20.2772367,69.4908688 Z M21.5635166,70.1276367 L21.4902926,70.2006447 L17.4981808,70.2028047 C17.4692368,70.3341327 17.4251728,70.5373887 17.4251728,70.9028607 C17.4251728,72.5559086 18.2446768,73.6389326 19.5169167,73.6389326 C20.6418446,73.6389326 21.0515966,72.8924366 21.2418926,72.5407886 L21.5194526,72.6731966 C21.2710526,73.3313486 20.5686206,74.4992605 18.9898767,74.4992605 C17.4841408,74.4992605 16.1410529,73.3605086 16.1410529,71.3566767 C16.1410529,70.4049807 16.4475568,69.5876368 16.9724368,69.0027088 C17.5284208,68.3724208 18.3027808,68.0088928 19.2093327,68.0088928 C20.8181006,68.0088928 21.5635166,69.0465568 21.5635166,70.1276367 Z M48.1038458,69.4908688 C48.1038458,69.2370688 48.0049178,68.8713808 47.7521978,68.6327008 C47.5832858,68.4778288 47.3446058,68.3659408 46.9940378,68.3659408 C46.0529259,68.3659408 45.6034299,69.1251808 45.4345179,69.7865728 L47.7800618,69.7854928 C48.0189578,69.7854928 48.1038458,69.7295488 48.1038458,69.4908688 Z M49.3901257,70.1276367 L49.3169017,70.2006447 L45.3247899,70.2028047 C45.2958459,70.3341327 45.2517819,70.5373887 45.2517819,70.9028607 C45.2517819,72.5559086 46.0712859,73.6389326 47.3435258,73.6389326 C48.4684538,73.6389326 48.8782057,72.8924366 49.0685017,72.5407886 L49.3460617,72.6731966 C49.0976617,73.3313486 48.3952298,74.4992605 46.8164858,74.4992605 C45.3109659,74.4992605 43.967662,73.3605086 43.967662,71.3566767 C43.967662,70.4049807 44.2741659,69.5876368 44.7990459,69.0027088 C45.3550299,68.3724208 46.1293899,68.0088928 47.0359418,68.0088928 C48.6449257,68.0088928 49.3901257,69.0465568 49.3901257,70.1276367 Z M44.068966,47.2357418 C43.551214,47.2357418 43.172998,47.1091658 42.910558,46.8493178 C42.585046,46.5078218 42.464086,46.0673979 42.464086,45.2213259 L42.464086,42.0595181 L41.5272941,42.0595181 L41.5272941,41.8126301 L41.5398221,41.8042061 C42.150238,41.3935901 43.016614,40.5539981 43.432414,39.9710141 L43.440838,39.9595661 L43.718182,39.9595661 L43.718182,41.1572861 L45.1800699,41.1572861 C45.4416459,41.1572861 45.5349579,41.1006941 45.6012699,41.0471261 L45.6096939,41.0412941 L45.6779499,41.0412941 L45.6779499,42.0595181 L43.718182,42.0595181 L43.718182,44.6651259 C43.718182,45.3504939 43.73719,45.7853019 44.002654,46.0490379 C44.182366,46.2311259 44.4670539,46.3199019 44.8733499,46.3199019 C45.3271659,46.3199019 45.6222219,46.2296139 45.8049579,46.0358619 L45.8218059,46.0175019 L46.0349979,46.1775579 L46.0254939,46.1980779 C45.8881179,46.4868698 45.2673339,47.2357418 44.068966,47.2357418 Z M53.4813815,47.0625098 L53.4509255,47.0603498 C53.0308055,47.0335658 52.4404776,47.0162858 51.9469176,47.0162858 C51.4408296,47.0162858 51.0710376,47.0324858 50.6046937,47.0603498 L50.5742377,47.0625098 L50.5742377,46.6156058 L50.5973497,46.6119338 L51.3345576,46.4842778 L51.3345576,43.182286 C51.3345576,42.533206 51.2475096,42.187174 51.0215736,41.9476301 C50.8053576,41.7182381 50.4534937,41.6067821 49.9441657,41.6067821 C49.3559977,41.6067821 48.8559577,41.8772141 48.6555097,42.0027101 L48.6555097,46.4842778 L49.4158297,46.6156058 L49.4158297,47.0625098 L49.3853737,47.0603498 C48.9274537,47.0309738 48.4662938,47.0162858 48.0137738,47.0162858 C47.5275578,47.0162858 47.0506298,47.0309738 46.5549098,47.0603498 L46.5244538,47.0625098 L46.5244538,46.6149578 L47.4014138,46.4838458 L47.4014138,38.4665742 L46.5821258,37.9257102 L46.5821258,37.6861663 L46.6011338,37.6799023 L48.3496538,37.0638703 L48.6555097,37.0638703 L48.6555097,41.6409101 C48.9337177,41.3553581 49.6415497,40.6894301 50.8073016,40.6894301 C51.3671736,40.6894301 51.8009016,40.8395501 52.0981176,41.1354701 C52.4551656,41.4923021 52.5886536,41.9482781 52.5886536,42.817894 L52.5886536,46.4838458 L53.4813815,46.6149578 L53.4813815,47.0625098 Z M39.5917182,47.0625098 L39.5612622,47.0603498 C39.1294782,47.0331338 38.3760702,47.0162858 37.8971982,47.0162858 C37.3908943,47.0162858 36.8321023,47.0324858 36.3642463,47.0603498 L36.3348703,47.0625098 L36.3348703,46.6149578 L36.3584143,46.6112858 L37.2122623,46.4838458 L37.2122623,42.090406 L36.3348703,41.5506221 L36.3348703,41.3106461 L36.3536623,41.3043821 L38.1596382,40.6894301 L38.4657102,40.6894301 L38.4652782,40.7177261 L38.4521022,42.091054 C38.9730942,41.1609581 39.5433342,40.6894301 40.1483501,40.6894301 C40.5548621,40.6894301 40.9665581,40.9546781 40.9665581,41.4614141 C40.9665581,41.9923421 40.5714941,42.321094 40.2060221,42.321094 C40.1241581,42.321094 40.0768541,42.302734 40.0474781,42.28891 L40.0412141,42.284374 L39.3774462,41.6651021 C39.0644622,41.6778461 38.6585982,42.23491 38.4652782,42.635158 L38.4652782,46.4831978 L39.5917182,46.6145258 L39.5917182,47.0625098 Z M35.5056464,47.0625098 L35.4762704,47.0603498 C34.9868144,47.0288138 34.3787744,47.0173658 33.9722624,47.0173658 C33.4627184,47.0173658 32.9672145,47.0320538 32.4982785,47.0603498 L32.4686865,47.0625098 L32.4686865,46.6145258 L32.4924465,46.6108538 L33.3603345,46.4831978 L33.3603345,42.08695 L32.5270065,41.6342141 L32.5270065,41.3942381 L32.5442865,41.3873261 L34.3519904,40.6559501 L34.6133504,40.6559501 L34.6133504,46.4831978 L35.5056464,46.6145258 L35.5056464,47.0625098 Z M33.9873824,38.7113022 C33.5532224,38.7113022 33.2002785,38.3585742 33.2002785,37.9241982 C33.2002785,37.4898223 33.5532224,37.1370943 33.9873824,37.1370943 C34.4291024,37.1370943 34.7747024,37.4824783 34.7747024,37.9241982 C34.7747024,38.3659182 34.4291024,38.7113022 33.9873824,38.7113022 Z" id="Combined-Shape" opacity="0.801302095"></path>
            </g>
        </g>
    </g>
</svg>