<svg width="76" height="101" xmlns="http://www.w3.org/2000/svg"><g fill="none" fill-rule="evenodd"><path d="M28.742 0c.215 0 .435.002.653.007C41.812.268 45.58 9.251 48.073 15.195c1.459 3.478 2.404 5.524 3.897 5.524.092 0 .186-.007.283-.023 1.48-.234 1.839-1.218 2.395-3.085.65-2.182 1.542-5.172 6.1-5.918a6.426 6.426 0 0 1 1.051-.088c1.466 0 2.876.52 4.198 1.549 4.753 3.693 8.327 14.324 9.562 28.438.991 11.353-2.149 34.531-14.798 48.4-6.383 6.997-14.294 10.566-23.513 10.61h-.164c-8.95 0-16.648-3.518-22.886-10.461C2.891 77.557-1.325 55.784.356 40.78 2.321 23.234 7.392 0 28.742 0zm29.98 26.277A3.981 3.981 0 0 0 55.83 27.3a3.99 3.99 0 0 0-1.32 2.77 4.014 4.014 0 0 0 3.792 4.213 4.022 4.022 0 0 0 4.213-3.795 3.983 3.983 0 0 0-1.024-2.892 3.984 3.984 0 0 0-2.77-1.32z" fill="#F2F2F2"/><path d="M30.747 74.649h-.302l-.007-.018-2.392-5.85-.696-.132v-.447l.03.001c.477.032.87.044 1.315.044.477 0 .945-.013 1.43-.044l.03-.001v.448l-.023.004-.755.126 1.142 2.818c.112.286.375.972.448 1.163.062-.17.262-.73.348-.986l1.027-2.994-.897-.13v-.449l.03.001.149.01c.346.023.519.034.93.034.432 0 .577-.01.864-.032l.173-.014v.45l-.023.003-.773.129-2.048 5.866zm21.554-.118c-.788 0-1.557-.22-1.853-.336l-.017-.008v-.017l-.073-1.786h.385l.007.02c.358 1.195.873 1.751 1.624 1.751.707 0 1.113-.374 1.113-1.026 0-.546-.37-.817-1.199-1.217l-.335-.161c-.864-.41-1.61-.766-1.61-1.942 0-1.126.824-1.825 2.149-1.825.665 0 1.246.176 1.557.27l.093.028.001.02.073 1.623h-.371l-.007-.02c-.124-.465-.52-1.544-1.537-1.544-.596 0-1.01.385-1.01.937 0 .61.388.855 1.213 1.232l.467.22c1.011.454 1.638.939 1.638 1.956 0 1.177-.82 1.825-2.308 1.825zm-11.718 0c-.78 0-1.498-.295-2.021-.829-.56-.573-.857-1.368-.857-2.299 0-.94.28-1.764.81-2.386.576-.666 1.424-1.033 2.39-1.033 1.213 0 2.163.564 2.163 1.284 0 .384-.265.643-.657.643a.648.648 0 0 1-.353-.107l-.006-.003-.003-.007-.77-1.355a.99.99 0 0 0-.476-.108c-1.084 0-1.756.986-1.756 2.576 0 1.644.82 2.707 2.09 2.707 1.038 0 1.456-.714 1.657-1.057l.03-.049.022.012.279.147-.01.019.026.005v.046l-.015-.006c-.487 1.177-1.366 1.8-2.543 1.8zm-28.694 0c-1.1 0-1.902-.392-2.287-.58a16.53 16.53 0 0 1-.112-.054l-.2.415h-.378l-.003-.025-.265-2.614.025-.004.404-.077.008.022c.37 1.06 1.065 2.467 2.824 2.467 1.514 0 1.917-1.149 1.917-1.828 0-1.223-1.237-1.64-2.231-1.977-1.27-.432-2.623-1.047-2.623-2.88 0-1.735 1.511-2.512 3.01-2.512.966 0 1.564.266 2.043.486l.07-.325h.354l.003.025.236 2.399h-.417l-.006-.022c-.35-1.422-1.128-2.143-2.312-2.143-.895 0-1.8.543-1.8 1.581 0 1.148 1.084 1.527 1.955 1.83l.123.043c1.276.438 2.863.983 2.863 3.041 0 2.017-1.724 2.732-3.2 2.732zm25.316-.175h-.03a25.268 25.268 0 0 0-2.977 0h-.03v-.448l.024-.003.868-.128V69.38l-.833-.451v-.24l.017-.007 1.808-.733h.261v5.828l.892.131v.448zm-11.673 0h-.03a30.55 30.55 0 0 0-1.665-.045c-.515 0-1.074.016-1.532.044l-.03.001v-.447l.024-.003.854-.128v-4.394l-.878-.54v-.239l.02-.006 1.805-.615h.306v.028l-.014 1.375c.52-.93 1.09-1.403 1.696-1.403.407 0 .818.265.818.772 0 .531-.394.86-.76.86a.363.363 0 0 1-.157-.032l-.007-.005-.666-.62c-.31.013-.716.57-.91.97v3.848l1.126.131v.448zm10.154-8.349a.789.789 0 0 1 0-1.576.78.78 0 0 1 .788.787.78.78 0 0 1-.788.789zm19.839-5.123c-1.853 0-3.097-1.322-3.097-3.289 0-2.139 1.566-3.258 3.113-3.258 1.484 0 3.082 1.024 3.082 3.273 0 1.958-1.245 3.274-3.098 3.274zm-9.107 0c-.52 0-.899-.127-1.158-.388-.326-.34-.448-.781-.448-1.628v-3.16h-.935v-.248l.012-.008c.612-.414 1.479-1.253 1.892-1.834l.008-.013h.277v1.2h1.463c.26 0 .354-.057.421-.111l.009-.007h.066v1.021h-1.959v2.604c0 .684.02 1.12.284 1.385.182.182.467.269.873.269.453 0 .749-.09.928-.284l.018-.019.02.016.194.146-.01.02c-.137.289-.755 1.039-1.955 1.039zm-5.756 0a2.8 2.8 0 0 1-2.02-.829c-.561-.573-.858-1.367-.858-2.299 0-.942.28-1.766.81-2.386.575-.666 1.424-1.033 2.389-1.033 1.212 0 2.163.564 2.163 1.284 0 .383-.264.642-.657.642a.642.642 0 0 1-.352-.106l-.005-.004-.003-.006-.77-1.355a.997.997 0 0 0-.479-.108c-1.098 0-1.754.962-1.754 2.575 0 1.645.82 2.707 2.091 2.707 1.035 0 1.454-.711 1.656-1.054l.03-.051.023.012.3.158-.009.023c-.483 1.196-1.366 1.83-2.555 1.83zm-19.988 0c-1.853 0-3.098-1.322-3.098-3.289 0-2.139 1.565-3.258 3.112-3.258 1.485 0 3.083 1.024 3.083 3.273 0 1.958-1.245 3.274-3.097 3.274zm-7.366 0c-1.233 0-2.381-.423-3.231-1.191-.945-.854-1.445-2.06-1.445-3.487 0-3.433 2.444-4.97 4.866-4.97a5.56 5.56 0 0 1 2.38.543l.098-.368h.369l.002.027.222 2.37h-.357l-.006-.02c-.41-1.335-1.406-2.13-2.664-2.13-.35 0-1.242.074-2 .772-.808.746-1.218 1.958-1.218 3.601 0 2.032.838 4.402 3.202 4.402 1.379 0 2.27-.706 2.722-2.158l.007-.02h.359l-.003.03-.222 2.352h-.369l-.005-.021-.093-.347a5.715 5.715 0 0 1-2.614.615zm38.66-.176h-.03a26.478 26.478 0 0 0-2.976 0h-.03v-.446l.024-.003.868-.128v-4.397l-.834-.453v-.24l.018-.007 1.808-.731h.261v5.828l.892.131v.446zm-20.973 0h-.03a26.262 26.262 0 0 0-1.487-.044c-.491 0-.969.014-1.46.043l-.03.001v-.446l.024-.003.854-.128v-7.99l-.834-.451v-.24l.018-.007 1.806-.733h.262v9.42l.877.132v.446zm35.191 0h-.03a26.572 26.572 0 0 0-1.503-.044c-.512 0-.88.016-1.344.043l-.03.001v-.445l.023-.004.739-.127V56.83c0-.65-.089-.995-.315-1.235-.216-.23-.563-.34-1.062-.34-.447 0-.886.132-1.304.395v4.482l.762.13v.446h-.03c-.457-.03-.919-.044-1.374-.044-.489 0-.967.014-1.458.043l-.03.001v-.446l.023-.003.853-.128v-4.395l-.818-.54v-.238l.019-.006 1.748-.615h.305v.951c.278-.286.985-.951 2.153-.951.561 0 .995.15 1.29.446.358.356.491.813.491 1.682v3.666l.892.131v.446zm-38.885 0h-.03a25.33 25.33 0 0 0-2.949 0h-.03v-.446l.025-.003.853-.128v-7.99l-.833-.451v-.24l.017-.007 1.808-.733h.26v9.42l.879.132v.446zm28.093-5.995c-1.271 0-1.538 1.4-1.538 2.576 0 .755.128 3.218 1.787 3.218.56 0 .98-.298 1.247-.885.265-.581.304-1.28.304-1.647 0-.98-.176-3.262-1.8-3.262zm-34.853 0c-1.27 0-1.537 1.4-1.537 2.576 0 .755.13 3.218 1.786 3.218.56 0 .98-.298 1.248-.885.265-.581.305-1.28.305-1.647 0-.98-.176-3.262-1.802-3.262zM50.45 52.36a.79.79 0 0 1-.787-.788.79.79 0 0 1 .787-.788.78.78 0 0 1 .788.788.78.78 0 0 1-.788.788zm-22.53-4.947h-.198l-.008-.018-1.553-3.968-1.53 3.986h-.2l-.008-.018-3.545-8.991-1.178-.196v-.456h6.84v.46l-.882.187 1.062 2.755 1.132-2.767-1.003-.174v-.463l.03.002c.46.03.926.044 1.388.044.4 0 .565-.01.892-.03l.246-.016v.463l-1.016.19L26.98 41.8l.494 1.306c.282.718.718 1.738.815 1.966.078-.203.392-1.013.582-1.518l2.02-5.214-1.131-.125v-.465l.029.002c.433.028.979.044 1.461.044.432 0 .615-.011.98-.033l.203-.013v.463l-.023.004-.98.186-3.51 9.01zm-11.205-.175c-.428 0-.607-.155-.914-.507l-1.382-1.626-.143.175c-.551.684-1.578 1.958-2.957 1.958a2.517 2.517 0 0 1-1.906-.851 2.867 2.867 0 0 1-.708-1.88c0-1.954 1.804-2.702 2.574-3.021l.083-.034c-.079-.102-.162-.201-.25-.306-.378-.448-.77-.912-.77-1.598 0-1.189.82-1.957 2.09-1.957 1.1 0 1.868.588 1.868 1.43 0 1.184-1.135 1.806-1.509 2.011-.02.011-.038.02-.053.03l2.211 2.586 1.575-2.16-1.066-.131v-.45l.03.003a23.823 23.823 0 0 0 2.891 0l.03-.002v.45l-1.3.132-1.867 2.49c.182.272 1.914 2.256 1.932 2.277.14.174.954.215 1.26.23.067.004.116.006.14.009l.021.002.051.305-.02.009c-.53.227-1.423.426-1.911.426zm-5.14-5.536c-.234.106-1.588.78-1.588 2.233 0 1.4 1.048 2.268 2.02 2.268 1.006 0 1.717-.885 2.059-1.31l.084-.104-2.575-3.087zm10.792-3.304l1.817 4.708c.283.72.714 1.744.808 1.968.077-.193.38-.963.57-1.468l.345-.856-1.738-4.343h-.01l-1.039-.209-.753.2zm-9.95-.46c-.736 0-.996.528-.996.981 0 .648.674 1.393.997 1.751.064.07.116.128.15.17.442-.314.772-1.04.772-1.702 0-.58-.243-1.2-.924-1.2zm17.384-4.3l-.012-.01-.2-.17v-.818c-.313.327-.942.95-2.065.95-.561 0-.996-.15-1.291-.446-.357-.356-.49-.81-.49-1.671v-3.633l-.833-.175v-.415l.026-.002 2.06-.133v4.124c0 .683.115.935.3 1.12.197.212.52.314.99.314.59 0 .975-.19 1.303-.396v-4.438l-.731-.175v-.414l.026-.002 1.958-.133v5.308c0 .2.04.25.206.25h.613v.311l-.018.006-1.842.648zm4.65-.048c-.798 0-1.56-.22-1.851-.336l-.017-.007v-.018l-.075-1.784h.386l.005.02c.36 1.193.876 1.75 1.625 1.75.708 0 1.114-.375 1.114-1.026 0-.546-.37-.817-1.199-1.218l-.336-.16c-.863-.411-1.608-.767-1.608-1.942 0-1.126.822-1.825 2.147-1.825.67 0 1.25.176 1.563.271l.086.026.001.02.075 1.624h-.372l-.006-.02c-.123-.465-.519-1.546-1.538-1.546-.595 0-1.01.386-1.01.938 0 .612.388.857 1.212 1.233l.47.22c1.01.453 1.636.94 1.636 1.956 0 1.176-.82 1.824-2.308 1.824zm-15.866-.173l-.03-.002a50.025 50.025 0 0 0-4.177 0l-.03.002v-.544l.025-.003 1.336-.186v-3.817h-4.406v3.817l1.36.19v.543l-.03-.002a50.014 50.014 0 0 0-4.176 0l-.03.002v-.544l.024-.003 1.335-.186v-7.855l-1.359-.19v-.536l.03.002a50.364 50.364 0 0 0 4.177 0l.029-.002v.536l-.024.003-1.336.187v3.538h4.406v-3.538l-1.36-.19v-.536l.029.002a50.401 50.401 0 0 0 4.177 0l.03-.002v.536l-.024.003-1.336.187v7.855l1.36.19v.543zm28.453 0l-.03-.002a32.295 32.295 0 0 0-1.665-.044c-.506 0-1.065.016-1.533.044l-.03.002v-.448l.878-.132v-4.393l-.878-.54v-.24l.019-.006 1.806-.614h.307v.028l-.016 1.376c.52-.932 1.09-1.404 1.698-1.404.406 0 .818.265.818.77 0 .532-.394.86-.76.86a.337.337 0 0 1-.16-.032l-.004-.004-.665-.62c-.311.013-.718.57-.91.97v3.849l1.125.131v.45zm-24.572-1.14l.014-1.55s-.41.117-.614.19c-.308.102-.63.234-.82.394-.22.176-.351.381-.351.688 0 .439.234.804.804.804.571 0 .967-.408.967-.526zm2.352.322c-.22.35-.745.963-1.506.963-.773 0-.817-.642-.832-.905h-.014c-.177.175-.777.905-1.64.905-.789 0-1.3-.526-1.3-1.285 0-.644.424-1.143.964-1.333.6-.205 1.243-.395 1.917-.614.073-.03.073-.045.073-.118 0 0 .015-.67.015-1.168 0-.862-.41-1.199-1.098-1.199-.381 0-.63.117-.82.293-.277.277-.35.658-.35 1.024 0 .13 0 .204-.145.233l-.511.117c-.206.044-.293-.087-.293-.263 0-.366.336-.752.6-.971.189-.147 1.168-.965 1.27-1.038.176-.102.541-.263 1.04-.263.978 0 1.504.511 1.504 1.695 0 .162-.03 3.4-.03 3.4 0 .425 0 .702.351.702.264 0 .497-.204.614-.38l.19.205zm16.961-4.045c0-.254-.099-.62-.351-.859-.17-.154-.408-.266-.758-.266-.942 0-1.391.759-1.56 1.42h2.346c.238 0 .323-.057.323-.295zm1.287.636l-.074.073-3.992.003a2.934 2.934 0 0 0-.073.7c0 1.653.82 2.736 2.092 2.736 1.125 0 1.535-.747 1.725-1.098l.278.132c-.249.658-.951 1.826-2.53 1.826-1.506 0-2.849-1.139-2.849-3.142 0-.952.307-1.77.832-2.355.556-.63 1.33-.993 2.236-.993 1.61 0 2.355 1.038 2.355 2.118zm-7.428 26.685c0-.253-.098-.619-.351-.858-.17-.155-.408-.266-.758-.266-.941 0-1.39.759-1.56 1.42h2.346c.239 0 .323-.057.323-.296zm1.287.637l-.073.073-3.993.002a2.936 2.936 0 0 0-.073.7c0 1.653.82 2.737 2.092 2.737 1.125 0 1.535-.747 1.725-1.098l.278.132c-.249.658-.951 1.826-2.53 1.826-1.505 0-2.849-1.139-2.849-3.143 0-.951.307-1.769.832-2.354.556-.63 1.33-.994 2.237-.994 1.608 0 2.354 1.038 2.354 2.12zm-16.648 12.98c0-.254-.099-.62-.351-.858-.17-.155-.408-.267-.759-.267-.94 0-1.39.76-1.56 1.42h2.346c.24 0 .324-.056.324-.295zm1.287.637l-.074.073-3.992.002a2.936 2.936 0 0 0-.073.7c0 1.653.82 2.736 2.092 2.736 1.125 0 1.535-.747 1.725-1.098l.277.132c-.248.658-.95 1.826-2.53 1.826-1.505 0-2.848-1.138-2.848-3.142 0-.952.307-1.77.831-2.354.556-.63 1.33-.994 2.237-.994 1.61 0 2.355 1.038 2.355 2.119zm26.54-.637c0-.254-.1-.62-.352-.858-.169-.155-.407-.267-.758-.267-.941 0-1.39.76-1.56 1.42h2.346c.239 0 .324-.056.324-.295zm1.286.637l-.073.073-3.992.002a2.936 2.936 0 0 0-.073.7c0 1.653.82 2.736 2.092 2.736 1.124 0 1.534-.747 1.725-1.098l.277.132c-.248.658-.95 1.826-2.53 1.826-1.505 0-2.848-1.138-2.848-3.142 0-.952.306-1.77.831-2.354.556-.63 1.33-.994 2.237-.994 1.609 0 2.354 1.038 2.354 2.119zM44.07 47.236c-.518 0-.896-.127-1.158-.387-.326-.341-.447-.782-.447-1.628V42.06h-.937v-.247l.013-.009c.61-.41 1.477-1.25 1.892-1.833l.009-.011h.277v1.197h1.462c.262 0 .355-.056.421-.11l.009-.006h.068v1.019h-1.96v2.605c0 .685.02 1.12.285 1.384.18.182.464.27.87.27.454 0 .75-.09.932-.283l.017-.018.213.16-.01.02c-.137.289-.758 1.038-1.956 1.038zm9.412-.173l-.03-.003c-.42-.026-1.01-.044-1.504-.044-.506 0-.876.016-1.342.044l-.03.003v-.447l.022-.004.738-.128v-3.302c0-.649-.087-.995-.313-1.234-.217-.23-.569-.341-1.078-.341-.588 0-1.088.27-1.288.396v4.481l.76.132v.447l-.03-.003c-.459-.029-.92-.044-1.372-.044-.486 0-.963.015-1.46.044l-.03.003v-.448l.877-.131v-8.017l-.819-.541v-.24l.02-.006 1.748-.616h.306v4.577c.278-.286.986-.952 2.151-.952.56 0 .994.15 1.291.446.357.357.49.813.49 1.683v3.666l.893.131v.448zm-13.89 0l-.03-.003a32.455 32.455 0 0 0-1.664-.044c-.506 0-1.065.016-1.533.044l-.03.003v-.448l.024-.004.854-.127V42.09l-.877-.54v-.24l.019-.006 1.806-.615h.306v.029l-.014 1.373c.521-.93 1.091-1.402 1.696-1.402.407 0 .819.266.819.772 0 .531-.396.86-.761.86a.35.35 0 0 1-.159-.032l-.006-.005-.664-.619c-.313.013-.718.57-.912.97v3.848l1.127.132v.448zm-4.085 0l-.03-.003a25.845 25.845 0 0 0-2.978 0l-.03.003v-.448l.024-.004.868-.128v-4.396l-.833-.453v-.24l.017-.007 1.808-.731h.261v5.827l.893.132v.448zm-1.519-8.352a.788.788 0 1 1 .788-.787.778.778 0 0 1-.788.787z" fill="#919191"/></g></svg>